HIERARCHY
ROOT SpineBase
{
  OFFSET 0.000000 0.000000 0.000000
  CHANNELS 6 Xposition Yposition Zposition Zrotation Xrotation Yrotation
  JOINT SpineMid
  {
    OFFSET 0.000000 28.331731 0.000000
    CHANNELS 3 Zrotation Xrotation Yrotation
    JOINT SpineShoulder
    {
      OFFSET -0.077132 21.008240 -0.977017
      CHANNELS 3 Zrotation Xrotation Yrotation
      JOINT Neck
      {
        OFFSET -0.056214 6.955863 -0.641935
        CHANNELS 3 Zrotation Xrotation Yrotation
        JOINT Head
        {
          OFFSET -3.284080 12.995736 0.452440
          CHANNELS 3 Zrotation Xrotation Yrotation
          End Site
          {
            OFFSET 0 0 0
          }
        }
      }
      JOINT ShoulderLeft
      {
        OFFSET -13.946588 -4.318014 8.270175
        CHANNELS 3 Zrotation Xrotation Yrotation
        JOINT ElbowLeft
        {
          OFFSET 0.339605 -26.398717 3.400264
          CHANNELS 3 Zrotation Xrotation Yrotation
          JOINT WristLeft
          {
            OFFSET -0.404426 -25.911247 -3.234497
            CHANNELS 3 Zrotation Xrotation Yrotation
            JOINT HandLeft
            {
              OFFSET 0.079199 -2.807845 -0.484570
              CHANNELS 3 Zrotation Xrotation Yrotation
              JOINT HandTipLeft
              {
                OFFSET 0.322436 -4.089689 -0.369606
                CHANNELS 3 Zrotation Xrotation Yrotation
                End Site
                {
                  OFFSET 0 0 0
                }
              }
              JOINT ThumbLeft
              {
                OFFSET 1.481044 2.157376 -4.722641
                CHANNELS 3 Zrotation Xrotation Yrotation
                End Site
                {
                  OFFSET 0 0 0
                }
              }
            }
          }
        }
      }
      JOINT ShoulderRight
      {
        OFFSET 9.690156 -3.636528 -11.444877
        CHANNELS 3 Zrotation Xrotation Yrotation
        JOINT ElbowRight
        {
          OFFSET 6.206615 -22.147139 -3.365260
          CHANNELS 3 Zrotation Xrotation Yrotation
          JOINT WristRight
          {
            OFFSET -1.631468 -19.555001 -3.764917
            CHANNELS 3 Zrotation Xrotation Yrotation
            JOINT HandRight
            {
              OFFSET -0.728402 -7.427265 -0.672217
              CHANNELS 3 Zrotation Xrotation Yrotation
              JOINT HandTipRight
              {
                OFFSET -0.417934 -6.357637 -0.201053
                CHANNELS 3 Zrotation Xrotation Yrotation
                End Site
                {
                  OFFSET 0 0 0
                }
              }
              JOINT ThumbRight
              {
                OFFSET -3.246758 0.625800 1.211980
                CHANNELS 3 Zrotation Xrotation Yrotation
                End Site
                {
                  OFFSET 0 0 0
                }
              }
            }
          }
        }
      }
    }
  }
  JOINT HipLeft
  {
    OFFSET -5.431779 -0.011721 0.480615
    CHANNELS 3 Zrotation Xrotation Yrotation
    JOINT KneeLeft
    {
      OFFSET 4.228343 -29.602895 3.531932
      CHANNELS 3 Zrotation Xrotation Yrotation
      JOINT AnkleLeft
      {
        OFFSET 6.022432 -32.613761 8.399361
        CHANNELS 3 Zrotation Xrotation Yrotation
        JOINT FootLeft
        {
          OFFSET -3.556746 -4.642676 -7.304864
          CHANNELS 3 Zrotation Xrotation Yrotation
          End Site
          {
            OFFSET 0 0 0
          }
        }
      }
    }
  }
  JOINT HipRight
  {
    OFFSET 4.858648 1.466982 -6.859081
    CHANNELS 3 Zrotation Xrotation Yrotation
    JOINT KneeRight
    {
      OFFSET 9.175865 -27.891885 2.222023
      CHANNELS 3 Zrotation Xrotation Yrotation
      JOINT AnkleRight
      {
        OFFSET 6.016101 -32.380271 10.503754
        CHANNELS 3 Zrotation Xrotation Yrotation
        JOINT FootRight
        {
          OFFSET -5.336967 -3.458595 -9.340349
          CHANNELS 3 Zrotation Xrotation Yrotation
          End Site
          {
            OFFSET 0 0 0
          }
        }
      }
    }
  }
}
MOTION
Frames: 7
Frame Time: 0.033333
26.383402 63.281544 345.650210 12.913154 -4.606613 32.654948 1.831344 -0.332341 -31.609139 0.652115 -0.253732 0.720631 12.350268 -9.438860 -3.812451 0.000000 0.000000 0.000000 -3.230480 -23.196808 2.386748 3.048249 -10.653211 -1.929090 -33.988365 -0.581528 15.884318 26.108943 -0.554778 -13.914974 0.000000 0.000000 0.000000 0.000000 0.000000 0.000000 23.149481 10.896344 -9.259682 -4.646864 -1.797849 -3.951468 7.321612 -10.996223 8.678363 -7.728465 11.178329 -1.139330 0.000000 0.000000 0.000000 0.000000 0.000000 0.000000 -19.517682 15.525000 -30.416115 23.317635 10.708264 4.894910 4.318847 9.052875 -38.306435 0.000000 0.000000 0.000000 -9.123875 36.352726 -24.616614 73.085149 -35.275842 39.401584 -32.951585 22.834803 -48.239382 0.000000 0.000000 0.000000
24.676908 63.564090 345.338022 10.818433 -4.537512 34.588971 2.145436 -0.694537 -33.702361 0.408229 -0.537076 0.657207 13.703832 -7.868579 -3.779588 0.000000 0.000000 0.000000 -1.293798 -22.979992 2.478111 -0.194240 -10.990741 -0.898988 -34.747474 -3.768472 16.354168 32.774941 3.523257 -17.386475 0.000000 0.000000 0.000000 0.000000 0.000000 0.000000 24.487811 9.141400 -9.052513 -2.085636 -1.710698 -3.448434 4.939599 -13.360992 10.052743 -5.262019 10.467892 -1.212573 0.000000 0.000000 0.000000 0.000000 0.000000 0.000000 -21.277914 15.027870 -32.705761 27.938719 13.913391 4.989338 8.164598 9.249724 -46.635095 0.000000 0.000000 0.000000 -13.658936 39.943388 -24.323865 66.963041 -26.178211 30.048995 -25.718303 7.867653 -52.810595 0.000000 0.000000 0.000000
23.124160 63.725524 344.994907 8.790874 -4.430762 35.593559 2.350156 -1.064205 -34.854866 0.123637 -0.708660 0.571172 15.888988 -5.459311 -3.712070 0.000000 0.000000 0.000000 0.679492 -22.821814 2.568737 -5.138528 -12.850157 0.737685 -32.696209 -2.365957 16.469286 33.809919 8.677167 -17.447520 0.000000 0.000000 0.000000 0.000000 0.000000 0.000000 25.948763 7.460649 -8.856944 -1.426778 -0.811274 -3.157792 3.950796 -14.948902 10.810851 -4.320535 9.512498 -1.011236 0.000000 0.000000 0.000000 0.000000 0.000000 0.000000 -22.387593 14.232524 -34.211883 31.478943 16.472959 4.862626 8.094083 11.940764 -48.854687 0.000000 0.000000 0.000000 -15.816754 43.036538 -23.413253 54.525894 -17.415766 19.985585 -18.095420 1.348770 -40.773561 0.000000 0.000000 0.000000
21.771788 63.680624 344.803789 6.817680 -4.495005 35.480966 2.306361 -1.231546 -34.887704 -0.372901 -0.791578 0.445723 18.123526 -2.930687 -3.662214 0.000000 0.000000 0.000000 3.123917 -22.557443 2.664651 -12.983019 -14.693322 2.986726 -25.709506 0.942127 14.048947 32.634585 13.260985 -16.195400 0.000000 0.000000 0.000000 0.000000 0.000000 0.000000 27.221538 6.245957 -8.575377 -1.237061 0.811273 -3.172693 1.142139 -15.805758 10.608844 -3.946314 4.891864 0.547007 0.000000 0.000000 0.000000 0.000000 0.000000 0.000000 -26.098548 13.347801 -34.608412 37.880698 20.827824 4.258534 3.929352 15.752120 -46.485958 0.000000 0.000000 0.000000 -14.576921 46.133179 -21.879418 40.656355 -13.414538 11.634240 -12.667160 -4.515474 -20.857802 0.000000 0.000000 0.000000
20.782592 63.426610 344.699019 5.398403 -4.567814 34.864361 1.967690 -1.114630 -34.390031 -1.048400 -0.779983 0.311223 19.541854 -0.612154 -3.515081 0.000000 0.000000 0.000000 5.555193 -23.730711 2.880005 -23.170977 -12.887486 6.209302 -15.485963 3.328549 8.945767 31.983698 13.750084 -15.241153 0.000000 0.000000 0.000000 0.000000 0.000000 0.000000 28.436296 5.302079 -8.250613 -2.257177 2.321823 -3.013445 -2.179651 -15.173679 9.310497 -1.717629 2.193588 0.905720 0.000000 0.000000 0.000000 0.000000 0.000000 0.000000 -25.808332 12.026573 -34.598348 39.103576 22.206014 3.969205 -3.782925 20.040805 -37.727656 0.000000 0.000000 0.000000 -11.677961 46.098075 -21.655024 24.198188 -7.279333 2.236156 3.682759 -20.519609 -12.271388 0.000000 0.000000 0.000000
20.160316 63.028256 344.576969 4.306886 -4.759042 33.370886 1.462286 -0.798145 -32.995762 -1.646723 -0.653099 0.185476 20.264343 1.927265 -3.266965 0.000000 0.000000 0.000000 7.916353 -23.244163 2.953306 -34.266233 -15.895880 8.899100 -1.229546 9.930802 3.080545 19.308017 16.031157 -7.957335 0.000000 0.000000 0.000000 0.000000 0.000000 0.000000 29.373552 4.785258 -7.911184 -4.126587 4.030129 -2.825130 -6.274238 -12.108360 6.934818 1.423103 -0.195479 1.056106 0.000000 0.000000 0.000000 0.000000 0.000000 0.000000 -21.270091 11.329345 -33.326094 36.604496 18.935148 4.658032 -16.075520 22.628236 -22.689149 0.000000 0.000000 0.000000 -8.461389 46.502316 -20.345581 7.154006 0.071303 -7.334024 26.167609 -32.703737 1.328669 0.000000 0.000000 0.000000
19.948266 62.510090 344.496657 3.658834 -5.008272 30.904589 0.842065 -0.390194 -30.590636 -2.033885 -0.413257 0.092631 19.917753 3.766693 -2.916854 0.000000 0.000000 0.000000 9.773425 -21.574505 2.894748 -45.755222 -19.528817 10.237774 16.722226 14.303629 -5.276798 3.888359 12.474215 -1.409816 0.000000 0.000000 0.000000 0.000000 0.000000 0.000000 29.712160 3.997146 -7.548333 -6.926132 5.915608 -2.267762 -10.469372 -8.064360 4.585059 4.632311 -3.384190 1.473173 0.000000 0.000000 0.000000 0.000000 0.000000 0.000000 -16.234992 10.034268 -30.995790 32.334420 15.787580 5.099393 -24.872078 26.615930 -12.344601 0.000000 0.000000 0.000000 -3.526686 45.386962 -19.124483 -11.068197 10.511596 -16.556716 47.000570 -36.874643 24.220745 0.000000 0.000000 0.000000
